<mxfile host="app.diagrams.net" modified="2020-11-27T07:00:00.656Z" agent="5.0 (Windows NT 10.0; WOW64) AppleWebKit/537.36 (KHTML, like Gecko) Chrome/87.0.4280.66 Safari/537.36" etag="1_7vc08Bm79fH0c5aL6t" version="13.10.3" type="github">
  <diagram name="Page-1" id="c7558073-3199-34d8-9f00-42111426c3f3">
    <mxGraphModel dx="1550" dy="868" grid="1" gridSize="10" guides="1" tooltips="1" connect="1" arrows="1" fold="1" page="1" pageScale="1" pageWidth="1654" pageHeight="2336" math="0" shadow="0">
      <root>
        <mxCell id="0" />
        <mxCell id="1" parent="0" />
        <mxCell id="4" value="创建nexus版本计划" style="whiteSpace=wrap;align=center;verticalAlign=middle;fontStyle=1;strokeWidth=3;rounded=1;" parent="1" vertex="1">
          <mxGeometry x="190" y="240" width="90" height="60" as="geometry" />
        </mxCell>
        <mxCell id="6" value="&lt;p style=&quot;margin: 0px; margin-top: 4px; text-align: center; text-decoration: underline;&quot;&gt;&lt;strong&gt;Process 2&lt;br /&gt;&lt;/strong&gt;&lt;/p&gt;&lt;hr /&gt;&lt;p style=&quot;margin: 0px; margin-left: 8px;&quot;&gt;System Analysis&lt;/p&gt;" style="verticalAlign=middle;align=center;overflow=fill;fontSize=12;fontFamily=Helvetica;html=1;fontStyle=1;strokeWidth=3;rounded=1;" parent="1" vertex="1">
          <mxGeometry x="110" y="50" width="110" height="90" as="geometry" />
        </mxCell>
        <mxCell id="14" value="测试进行测试" style="whiteSpace=wrap;align=center;verticalAlign=middle;fontStyle=1;strokeWidth=3;rounded=1;" parent="1" vertex="1">
          <mxGeometry x="765" y="739.9999999999999" width="90" height="60" as="geometry" />
        </mxCell>
        <mxCell id="67" value="" style="edgeStyle=elbowEdgeStyle;elbow=horizontal;strokeWidth=2;curved=1;" parent="1" edge="1">
          <mxGeometry width="100" height="100" relative="1" as="geometry">
            <mxPoint x="1490" y="471" as="sourcePoint" />
            <mxPoint x="1490" y="220" as="targetPoint" />
          </mxGeometry>
        </mxCell>
        <mxCell id="s6KZNq_WkJD6nshp_86h-313" value="" style="edgeStyle=elbowEdgeStyle;elbow=horizontal;strokeWidth=2;exitX=1;exitY=0.5;exitDx=0;exitDy=0;entryX=0;entryY=0.75;entryDx=0;entryDy=0;curved=1;" parent="1" source="4" target="s6KZNq_WkJD6nshp_86h-316" edge="1">
          <mxGeometry width="100" height="100" relative="1" as="geometry">
            <mxPoint x="320" y="265" as="sourcePoint" />
            <mxPoint x="400" y="165" as="targetPoint" />
            <Array as="points">
              <mxPoint x="370" y="230" />
              <mxPoint x="390" y="160" />
              <mxPoint x="310" y="265" />
              <mxPoint x="350" y="140" />
            </Array>
          </mxGeometry>
        </mxCell>
        <mxCell id="s6KZNq_WkJD6nshp_86h-316" value="输入nexus模块" style="html=1;strokeWidth=3;shape=manualInput;whiteSpace=wrap;size=26;arcSize=11;fontFamily=Lucida Console;rounded=1;" parent="1" vertex="1">
          <mxGeometry x="480" y="120" width="110" height="70" as="geometry" />
        </mxCell>
        <mxCell id="s6KZNq_WkJD6nshp_86h-330" style="edgeStyle=orthogonalEdgeStyle;curved=1;orthogonalLoop=1;jettySize=auto;html=0;exitX=1;exitY=0.5;exitDx=0;exitDy=0;strokeWidth=3;fontFamily=Lucida Console;" parent="1" source="s6KZNq_WkJD6nshp_86h-319" target="s6KZNq_WkJD6nshp_86h-329" edge="1">
          <mxGeometry relative="1" as="geometry" />
        </mxCell>
        <mxCell id="s6KZNq_WkJD6nshp_86h-331" value="创建dev分支" style="edgeLabel;html=1;align=center;verticalAlign=middle;resizable=0;points=[];fontFamily=Lucida Console;rounded=1;" parent="s6KZNq_WkJD6nshp_86h-330" vertex="1" connectable="0">
          <mxGeometry x="-0.2021" y="-1" relative="1" as="geometry">
            <mxPoint as="offset" />
          </mxGeometry>
        </mxCell>
        <mxCell id="s6KZNq_WkJD6nshp_86h-343" style="edgeStyle=orthogonalEdgeStyle;curved=1;orthogonalLoop=1;jettySize=auto;html=0;exitX=0.5;exitY=1;exitDx=0;exitDy=0;entryX=0.5;entryY=0;entryDx=0;entryDy=0;strokeWidth=3;fontFamily=Lucida Console;endSize=4;startSize=4;" parent="1" source="s6KZNq_WkJD6nshp_86h-319" target="s6KZNq_WkJD6nshp_86h-323" edge="1">
          <mxGeometry relative="1" as="geometry" />
        </mxCell>
        <mxCell id="s6KZNq_WkJD6nshp_86h-319" value="创建版本计划" style="whiteSpace=wrap;align=center;verticalAlign=middle;fontStyle=1;strokeWidth=3;rounded=1;" parent="1" vertex="1">
          <mxGeometry x="750" y="190" width="120" height="90" as="geometry" />
        </mxCell>
        <mxCell id="s6KZNq_WkJD6nshp_86h-321" value="" style="edgeStyle=elbowEdgeStyle;elbow=horizontal;strokeWidth=2;curved=1;exitX=1;exitY=0.5;exitDx=0;exitDy=0;entryX=0;entryY=0.5;entryDx=0;entryDy=0;" parent="1" source="s6KZNq_WkJD6nshp_86h-316" target="s6KZNq_WkJD6nshp_86h-319" edge="1">
          <mxGeometry width="100" height="100" relative="1" as="geometry">
            <mxPoint x="430" y="520" as="sourcePoint" />
            <mxPoint x="1070" y="300" as="targetPoint" />
          </mxGeometry>
        </mxCell>
        <mxCell id="4YT83ypD0eECH6SbneS9-86" value="" style="edgeStyle=orthogonalEdgeStyle;rounded=0;orthogonalLoop=1;jettySize=auto;html=1;" edge="1" parent="1" source="s6KZNq_WkJD6nshp_86h-323" target="4YT83ypD0eECH6SbneS9-67">
          <mxGeometry relative="1" as="geometry" />
        </mxCell>
        <mxCell id="s6KZNq_WkJD6nshp_86h-323" value="申请提测/重新提测，创建test分支" style="whiteSpace=wrap;align=center;verticalAlign=middle;fontStyle=1;strokeWidth=3;rounded=1;" parent="1" vertex="1">
          <mxGeometry x="760" y="370" width="100" height="60" as="geometry" />
        </mxCell>
        <mxCell id="s6KZNq_WkJD6nshp_86h-342" style="edgeStyle=orthogonalEdgeStyle;curved=1;orthogonalLoop=1;jettySize=auto;html=0;exitX=0;exitY=0.75;exitDx=0;exitDy=0;entryX=1;entryY=0.5;entryDx=0;entryDy=0;strokeWidth=3;fontFamily=Lucida Console;" parent="1" source="s6KZNq_WkJD6nshp_86h-329" target="s6KZNq_WkJD6nshp_86h-323" edge="1">
          <mxGeometry relative="1" as="geometry" />
        </mxCell>
        <mxCell id="s6KZNq_WkJD6nshp_86h-329" value="" style="shape=image;html=1;verticalAlign=top;verticalLabelPosition=bottom;imageAspect=0;aspect=fixed;image=https://cdn4.iconfinder.com/data/icons/logos-and-brands/512/141_Git_logo_logos-128.png;strokeWidth=3;fontFamily=Lucida Console;rounded=1;" parent="1" vertex="1">
          <mxGeometry x="1060" y="202.5" width="65" height="65" as="geometry" />
        </mxCell>
        <mxCell id="s6KZNq_WkJD6nshp_86h-332" value="开发" style="shape=umlActor;verticalLabelPosition=bottom;verticalAlign=top;html=1;outlineConnect=0;strokeWidth=3;fontFamily=Lucida Console;rounded=1;" parent="1" vertex="1">
          <mxGeometry x="1180" y="380" width="30" height="60" as="geometry" />
        </mxCell>
        <mxCell id="s6KZNq_WkJD6nshp_86h-333" value="" style="edgeStyle=elbowEdgeStyle;elbow=horizontal;strokeWidth=2;curved=1;exitX=0;exitY=0.3333333333333333;exitDx=0;exitDy=0;exitPerimeter=0;" parent="1" source="s6KZNq_WkJD6nshp_86h-332" target="s6KZNq_WkJD6nshp_86h-329" edge="1">
          <mxGeometry width="100" height="100" relative="1" as="geometry">
            <mxPoint x="1500" y="481" as="sourcePoint" />
            <mxPoint x="1500" y="230" as="targetPoint" />
          </mxGeometry>
        </mxCell>
        <mxCell id="s6KZNq_WkJD6nshp_86h-337" value="提交代码" style="edgeLabel;html=1;align=center;verticalAlign=middle;resizable=0;points=[];fontFamily=Lucida Console;rounded=1;" parent="s6KZNq_WkJD6nshp_86h-333" vertex="1" connectable="0">
          <mxGeometry x="0.1073" y="-1" relative="1" as="geometry">
            <mxPoint as="offset" />
          </mxGeometry>
        </mxCell>
        <mxCell id="s6KZNq_WkJD6nshp_86h-340" value="" style="edgeStyle=elbowEdgeStyle;elbow=horizontal;strokeWidth=2;curved=1;exitX=1.032;exitY=0.603;exitDx=0;exitDy=0;exitPerimeter=0;entryX=-0.009;entryY=0.648;entryDx=0;entryDy=0;entryPerimeter=0;" parent="1" source="s6KZNq_WkJD6nshp_86h-323" target="s6KZNq_WkJD6nshp_86h-329" edge="1">
          <mxGeometry width="100" height="100" relative="1" as="geometry">
            <mxPoint x="1500" y="481" as="sourcePoint" />
            <mxPoint x="940" y="590" as="targetPoint" />
          </mxGeometry>
        </mxCell>
        <mxCell id="s6KZNq_WkJD6nshp_86h-341" value="拉取代码" style="edgeLabel;html=1;align=center;verticalAlign=middle;resizable=0;points=[];fontFamily=Lucida Console;rounded=1;" parent="s6KZNq_WkJD6nshp_86h-340" vertex="1" connectable="0">
          <mxGeometry x="-0.2137" y="10" relative="1" as="geometry">
            <mxPoint as="offset" />
          </mxGeometry>
        </mxCell>
        <mxCell id="s6KZNq_WkJD6nshp_86h-358" value="Nexus" style="shape=cylinder3;whiteSpace=wrap;html=1;boundedLbl=1;backgroundOutline=1;size=15;rounded=1;strokeWidth=3;fontFamily=Lucida Console;" parent="1" vertex="1">
          <mxGeometry x="1320" y="1370" width="60" height="80" as="geometry" />
        </mxCell>
        <mxCell id="s6KZNq_WkJD6nshp_86h-378" style="edgeStyle=orthogonalEdgeStyle;curved=1;orthogonalLoop=1;jettySize=auto;html=0;exitX=0.5;exitY=1;exitDx=0;exitDy=0;entryX=0.5;entryY=1;entryDx=0;entryDy=0;entryPerimeter=0;startSize=4;endSize=4;strokeWidth=3;fontFamily=Lucida Console;" parent="1" source="s6KZNq_WkJD6nshp_86h-364" target="s6KZNq_WkJD6nshp_86h-358" edge="1">
          <mxGeometry relative="1" as="geometry" />
        </mxCell>
        <mxCell id="s6KZNq_WkJD6nshp_86h-379" value="工单审批通过，上传" style="edgeLabel;html=1;align=center;verticalAlign=middle;resizable=0;points=[];fontFamily=Lucida Console;" parent="s6KZNq_WkJD6nshp_86h-378" vertex="1" connectable="0">
          <mxGeometry x="-0.165" y="47" relative="1" as="geometry">
            <mxPoint as="offset" />
          </mxGeometry>
        </mxCell>
        <mxCell id="s6KZNq_WkJD6nshp_86h-364" value="生产阶段" style="whiteSpace=wrap;align=center;verticalAlign=middle;fontStyle=1;strokeWidth=3;rounded=1;" parent="1" vertex="1">
          <mxGeometry x="770" y="1360" width="90" height="60" as="geometry" />
        </mxCell>
        <mxCell id="4YT83ypD0eECH6SbneS9-67" value="修改版本号" style="whiteSpace=wrap;align=center;verticalAlign=middle;fontStyle=1;strokeWidth=3;rounded=1;" vertex="1" parent="1">
          <mxGeometry x="765" y="479.9999999999999" width="90" height="60" as="geometry" />
        </mxCell>
        <mxCell id="4YT83ypD0eECH6SbneS9-74" style="edgeStyle=orthogonalEdgeStyle;curved=1;orthogonalLoop=1;jettySize=auto;html=0;strokeWidth=3;fontFamily=Lucida Console;endSize=4;startSize=4;exitX=0.5;exitY=1;exitDx=0;exitDy=0;" edge="1" parent="1" source="4YT83ypD0eECH6SbneS9-67">
          <mxGeometry relative="1" as="geometry">
            <mxPoint x="830" y="450" as="sourcePoint" />
            <mxPoint x="810" y="610" as="targetPoint" />
            <Array as="points">
              <mxPoint x="810" y="610" />
              <mxPoint x="810" y="610" />
            </Array>
          </mxGeometry>
        </mxCell>
        <mxCell id="4YT83ypD0eECH6SbneS9-75" value="上传nexus" style="whiteSpace=wrap;align=center;verticalAlign=middle;fontStyle=1;strokeWidth=3;rounded=1;" vertex="1" parent="1">
          <mxGeometry x="765" y="609.9999999999999" width="90" height="60" as="geometry" />
        </mxCell>
        <mxCell id="4YT83ypD0eECH6SbneS9-85" style="edgeStyle=orthogonalEdgeStyle;curved=1;orthogonalLoop=1;jettySize=auto;html=0;strokeWidth=3;fontFamily=Lucida Console;endSize=4;startSize=4;exitX=0.5;exitY=1;exitDx=0;exitDy=0;entryX=0.5;entryY=0;entryDx=0;entryDy=0;" edge="1" parent="1">
          <mxGeometry relative="1" as="geometry">
            <mxPoint x="810" y="430" as="sourcePoint" />
            <mxPoint x="810" y="480" as="targetPoint" />
            <Array as="points" />
          </mxGeometry>
        </mxCell>
        <mxCell id="4YT83ypD0eECH6SbneS9-89" style="edgeStyle=orthogonalEdgeStyle;curved=1;orthogonalLoop=1;jettySize=auto;html=0;strokeWidth=3;fontFamily=Lucida Console;endSize=4;startSize=4;exitX=0.5;exitY=1;exitDx=0;exitDy=0;" edge="1" parent="1">
          <mxGeometry relative="1" as="geometry">
            <mxPoint x="809.5" y="670" as="sourcePoint" />
            <mxPoint x="809.5" y="740" as="targetPoint" />
            <Array as="points">
              <mxPoint x="810" y="690" />
              <mxPoint x="810" y="690" />
            </Array>
          </mxGeometry>
        </mxCell>
        <mxCell id="4YT83ypD0eECH6SbneS9-91" value="" style="edgeStyle=elbowEdgeStyle;elbow=horizontal;strokeWidth=2;curved=1;" edge="1" parent="1">
          <mxGeometry width="100" height="100" relative="1" as="geometry">
            <mxPoint x="760" y="890" as="sourcePoint" />
            <mxPoint x="750" y="400" as="targetPoint" />
            <Array as="points">
              <mxPoint x="610" y="650" />
            </Array>
          </mxGeometry>
        </mxCell>
        <mxCell id="4YT83ypD0eECH6SbneS9-94" value="&lt;font style=&quot;font-size: 15px&quot;&gt;否&lt;/font&gt;" style="edgeLabel;html=1;align=center;verticalAlign=middle;resizable=0;points=[];" vertex="1" connectable="0" parent="4YT83ypD0eECH6SbneS9-91">
          <mxGeometry x="-0.0528" relative="1" as="geometry">
            <mxPoint as="offset" />
          </mxGeometry>
        </mxCell>
        <mxCell id="4YT83ypD0eECH6SbneS9-93" value="测试是否通过" style="whiteSpace=wrap;align=center;verticalAlign=middle;fontStyle=1;strokeWidth=3;rounded=1;" vertex="1" parent="1">
          <mxGeometry x="765" y="869.9999999999999" width="90" height="60" as="geometry" />
        </mxCell>
        <mxCell id="4YT83ypD0eECH6SbneS9-95" style="edgeStyle=orthogonalEdgeStyle;curved=1;orthogonalLoop=1;jettySize=auto;html=0;strokeWidth=3;fontFamily=Lucida Console;endSize=4;startSize=4;exitX=0.5;exitY=1;exitDx=0;exitDy=0;" edge="1" parent="1">
          <mxGeometry relative="1" as="geometry">
            <mxPoint x="809.5" y="800" as="sourcePoint" />
            <mxPoint x="809.5" y="870" as="targetPoint" />
            <Array as="points">
              <mxPoint x="810" y="820" />
              <mxPoint x="810" y="820" />
            </Array>
          </mxGeometry>
        </mxCell>
        <mxCell id="4YT83ypD0eECH6SbneS9-97" style="edgeStyle=orthogonalEdgeStyle;curved=1;orthogonalLoop=1;jettySize=auto;html=0;strokeWidth=3;fontFamily=Lucida Console;endSize=4;startSize=4;exitX=0.5;exitY=1;exitDx=0;exitDy=0;" edge="1" parent="1">
          <mxGeometry relative="1" as="geometry">
            <mxPoint x="809.5" y="930" as="sourcePoint" />
            <mxPoint x="809.5" y="1000" as="targetPoint" />
            <Array as="points">
              <mxPoint x="810" y="970" />
              <mxPoint x="810" y="970" />
            </Array>
          </mxGeometry>
        </mxCell>
        <mxCell id="4YT83ypD0eECH6SbneS9-98" value="是" style="text;html=1;align=center;verticalAlign=middle;resizable=0;points=[];autosize=1;" vertex="1" parent="1">
          <mxGeometry x="785" y="950" width="30" height="20" as="geometry" />
        </mxCell>
        <mxCell id="4YT83ypD0eECH6SbneS9-99" value="申请评审" style="whiteSpace=wrap;align=center;verticalAlign=middle;fontStyle=1;strokeWidth=3;rounded=1;" vertex="1" parent="1">
          <mxGeometry x="765" y="999.9999999999999" width="90" height="60" as="geometry" />
        </mxCell>
      </root>
    </mxGraphModel>
  </diagram>
</mxfile>
